<?xml version="1.0" standalone="no"?>
<!DOCTYPE svg PUBLIC "-//W3C//DTD SVG 20010904//EN"
 "http://www.w3.org/TR/2001/REC-SVG-20010904/DTD/svg10.dtd">
<svg version="1.0" xmlns="http://www.w3.org/2000/svg"
 width="312.000000pt" height="312.000000pt" viewBox="0 0 312.000000 312.000000"
 preserveAspectRatio="xMidYMid meet">

<g transform="translate(0.000000,312.000000) scale(0.100000,-0.100000)"
fill="#000000" stroke="none">
<path d="M1680 2781 c-175 -25 -307 -120 -371 -267 -33 -77 -49 -184 -49 -325
l0 -129 -120 0 -120 0 0 -245 0 -245 120 0 120 0 2 -607 3 -608 243 -3 242 -2
0 610 0 610 180 0 c99 0 180 1 181 3 5 19 44 479 40 482 -2 3 -89 5 -193 5
l-188 0 0 120 c0 118 0 120 29 152 l29 33 161 3 161 3 -2 206 -3 205 -205 3
c-113 2 -230 0 -260 -4z"/>
</g>
</svg>
