<?xml version="1.0" standalone="no"?>
<!DOCTYPE svg PUBLIC "-//W3C//DTD SVG 20010904//EN"
 "http://www.w3.org/TR/2001/REC-SVG-20010904/DTD/svg10.dtd">
<svg version="1.0" xmlns="http://www.w3.org/2000/svg"
 width="299.000000pt" height="299.000000pt" viewBox="0 0 299.000000 299.000000"
 preserveAspectRatio="xMidYMid meet">

<g transform="translate(0.000000,299.000000) scale(0.100000,-0.100000)"
fill="#000000" stroke="none">
<path d="M828 2555 c-147 -40 -267 -150 -321 -293 -21 -56 -22 -68 -25 -726
-2 -447 1 -693 8 -740 30 -199 183 -353 380 -385 88 -15 1292 -15 1380 0 194
31 349 185 379 379 14 82 14 1300 1 1390 -25 177 -163 328 -343 376 -73 19
-1388 19 -1459 -1z m1457 -194 c56 -25 101 -66 133 -120 l27 -46 3 -685 c2
-477 0 -697 -8 -725 -17 -62 -70 -126 -131 -160 l-54 -30 -695 0 -695 0 -54
30 c-29 16 -66 45 -82 64 -61 74 -60 60 -57 817 3 687 3 689 25 730 26 49 82
100 137 125 39 17 81 19 726 19 642 0 688 -2 725 -19z"/>
<path d="M2103 2194 c-20 -10 -40 -32 -53 -58 -24 -50 -25 -66 -6 -111 38 -91
187 -101 231 -15 61 118 -55 242 -172 184z"/>
<path d="M1455 2041 c-168 -37 -312 -143 -387 -287 -48 -91 -68 -169 -68 -264
0 -159 51 -281 165 -396 111 -113 238 -166 395 -166 157 0 283 53 396 166 178
178 215 433 97 658 -91 174 -268 285 -468 293 -49 2 -108 0 -130 -4z m268
-216 c36 -18 80 -52 112 -87 189 -203 100 -528 -167 -609 -357 -109 -639 325
-392 600 92 103 164 133 299 128 75 -3 100 -8 148 -32z"/>
</g>
</svg>
