<?xml version="1.0" standalone="no"?>
<!DOCTYPE svg PUBLIC "-//W3C//DTD SVG 20010904//EN"
 "http://www.w3.org/TR/2001/REC-SVG-20010904/DTD/svg10.dtd">
<svg version="1.0" xmlns="http://www.w3.org/2000/svg"
 width="239.000000pt" height="239.000000pt" viewBox="0 0 239.000000 239.000000"
 preserveAspectRatio="xMidYMid meet">

<g transform="translate(0.000000,239.000000) scale(0.100000,-0.100000)"
fill="#000000" stroke="none">
<path d="M501 2146 c-157 -51 -202 -264 -78 -373 47 -41 96 -56 168 -51 172
12 258 218 147 352 -57 70 -153 99 -237 72z"/>
<path d="M350 900 l0 -630 220 0 220 0 0 630 0 630 -220 0 -220 0 0 -630z"/>
<path d="M1040 900 l0 -630 184 0 185 0 3 388 c3 368 4 389 24 432 29 64 81
106 148 120 86 18 145 2 204 -53 61 -59 66 -89 70 -509 l3 -378 191 0 190 0
-5 433 c-5 455 -9 507 -56 611 -41 93 -135 168 -241 194 -196 47 -394 10 -497
-94 l-53 -53 0 85 0 84 -175 0 -175 0 0 -630z"/>
</g>
</svg>
