<?xml version="1.0" standalone="no"?>
<!DOCTYPE svg PUBLIC "-//W3C//DTD SVG 20010904//EN"
 "http://www.w3.org/TR/2001/REC-SVG-20010904/DTD/svg10.dtd">
<svg version="1.0" xmlns="http://www.w3.org/2000/svg"
 width="249.000000pt" height="248.000000pt" viewBox="0 0 249.000000 248.000000"
 preserveAspectRatio="xMidYMid meet">

<g transform="translate(0.000000,248.000000) scale(0.100000,-0.100000)"
fill="#000000" stroke="none">
<path d="M1611 2054 c-224 -60 -380 -280 -356 -502 l7 -63 -54 6 c-177 21
-313 58 -458 126 -151 71 -300 178 -409 294 -72 77 -70 78 -102 -28 -31 -98
-24 -238 14 -322 33 -71 95 -153 137 -180 16 -11 30 -23 30 -26 0 -10 -92 8
-149 30 -30 11 -57 18 -60 16 -8 -9 20 -138 40 -183 49 -112 156 -212 272
-254 l61 -22 -35 -9 c-19 -5 -64 -7 -101 -5 -38 2 -68 1 -68 -2 0 -3 13 -29
28 -57 73 -141 205 -233 366 -257 l49 -8 -44 -29 c-163 -111 -390 -177 -574
-167 -41 2 -75 1 -75 -3 0 -12 237 -118 320 -143 246 -74 547 -76 797 -6 537
150 931 653 960 1226 l6 122 55 43 c54 43 172 174 172 191 0 5 -13 2 -28 -6
-32 -17 -176 -56 -204 -56 -13 0 0 18 45 60 55 51 137 173 125 185 -2 2 -35
-12 -75 -30 -39 -19 -103 -43 -143 -54 l-72 -20 -51 38 c-135 100 -283 134
-426 95z"/>
</g>
</svg>
