<?xml version="1.0" standalone="no"?>
<!DOCTYPE svg PUBLIC "-//W3C//DTD SVG 20010904//EN"
 "http://www.w3.org/TR/2001/REC-SVG-20010904/DTD/svg10.dtd">
<svg version="1.0" xmlns="http://www.w3.org/2000/svg"
 width="273.000000pt" height="273.000000pt" viewBox="0 0 273.000000 273.000000"
 preserveAspectRatio="xMidYMid meet">

<g transform="translate(0.000000,273.000000) scale(0.100000,-0.100000)"
fill="#000000" stroke="none">
<path d="M730 2099 c-194 -11 -248 -22 -306 -62 -92 -64 -132 -184 -155 -467
-14 -173 -7 -474 16 -643 33 -250 99 -328 296 -356 310 -43 1399 -37 1659 9
201 36 260 207 260 752 0 382 -31 571 -110 660 -51 59 -112 84 -236 98 -124
15 -1208 22 -1424 9z m728 -569 c179 -94 329 -170 334 -170 4 0 8 -4 8 -10 0
-5 -4 -10 -8 -10 -8 0 -207 -102 -549 -281 l-133 -69 -2 360 c-3 306 -1 359
11 355 8 -3 160 -82 339 -175z"/>
</g>
</svg>
